<mxfile host="Electron" agent="Mozilla/5.0 (Windows NT 10.0; Win64; x64) AppleWebKit/537.36 (KHTML, like Gecko) draw.io/24.7.8 Chrome/128.0.6613.36 Electron/32.0.1 Safari/537.36" version="24.7.8">
  <diagram name="Page-1" id="74F4eKrX7nA7OtSMTGrW">
    <mxGraphModel dx="1098" dy="1180" grid="1" gridSize="10" guides="1" tooltips="1" connect="1" arrows="1" fold="1" page="1" pageScale="1" pageWidth="850" pageHeight="1100" math="0" shadow="0">
      <root>
        <mxCell id="0" />
        <mxCell id="1" parent="0" />
        <mxCell id="ruq_KIyikG-wlPngTBl1-9" style="edgeStyle=orthogonalEdgeStyle;rounded=0;orthogonalLoop=1;jettySize=auto;html=1;strokeWidth=2;strokeColor=#FF0000;" edge="1" parent="1" source="ruq_KIyikG-wlPngTBl1-1" target="ruq_KIyikG-wlPngTBl1-3">
          <mxGeometry relative="1" as="geometry">
            <Array as="points">
              <mxPoint x="830" y="440" />
              <mxPoint x="830" y="440" />
            </Array>
          </mxGeometry>
        </mxCell>
        <mxCell id="ruq_KIyikG-wlPngTBl1-1" value="REST&lt;div style=&quot;font-size: 16px;&quot;&gt;Client&lt;/div&gt;" style="rounded=0;whiteSpace=wrap;html=1;fillColor=#dae8fc;strokeColor=#6c8ebf;fontSize=16;" vertex="1" parent="1">
          <mxGeometry x="130" y="406.49" width="90" height="170" as="geometry" />
        </mxCell>
        <mxCell id="ruq_KIyikG-wlPngTBl1-6" style="edgeStyle=orthogonalEdgeStyle;rounded=0;orthogonalLoop=1;jettySize=auto;html=1;" edge="1" parent="1" source="ruq_KIyikG-wlPngTBl1-3" target="ruq_KIyikG-wlPngTBl1-4">
          <mxGeometry relative="1" as="geometry" />
        </mxCell>
        <mxCell id="ruq_KIyikG-wlPngTBl1-10" style="edgeStyle=orthogonalEdgeStyle;rounded=0;orthogonalLoop=1;jettySize=auto;html=1;strokeWidth=2;strokeColor=#FF0000;" edge="1" parent="1" source="ruq_KIyikG-wlPngTBl1-3" target="ruq_KIyikG-wlPngTBl1-1">
          <mxGeometry relative="1" as="geometry">
            <Array as="points">
              <mxPoint x="730" y="540" />
              <mxPoint x="730" y="540" />
            </Array>
          </mxGeometry>
        </mxCell>
        <mxCell id="ruq_KIyikG-wlPngTBl1-3" value="Database" style="sketch=0;outlineConnect=0;fontColor=#232F3E;gradientColor=none;fillColor=#232F3D;strokeColor=none;dashed=0;verticalLabelPosition=middle;verticalAlign=middle;align=center;html=1;fontSize=16;fontStyle=0;aspect=fixed;pointerEvents=1;shape=mxgraph.aws4.generic_database;labelPosition=center;" vertex="1" parent="1">
          <mxGeometry x="907.75" y="402.58500000000004" width="134.5" height="177.81" as="geometry" />
        </mxCell>
        <mxCell id="ruq_KIyikG-wlPngTBl1-4" value="&lt;div style=&quot;color: #cccccc;background-color: #1f1f1f;font-family: Consolas, &#39;Courier New&#39;, monospace;font-weight: normal;font-size: 14px;line-height: 19px;white-space: pre;&quot;&gt;&lt;div&gt;&lt;span style=&quot;color: #cccccc;&quot;&gt;&amp;nbsp; &amp;nbsp; &lt;/span&gt;&lt;span style=&quot;color: #d4d4d4;&quot;&gt;(&lt;/span&gt;&lt;span style=&quot;color: #ce9178;&quot;&gt;&#39;brenno&#39;&lt;/span&gt;&lt;span style=&quot;color: #d4d4d4;&quot;&gt;, &lt;/span&gt;&lt;span style=&quot;color: #ce9178;&quot;&gt;&#39;{bcrypt}$2a$10$a2eZLPE1rSQ7ZIqnD2IxPOoBedWMBgNpU.s14k7IPq6EsDixn/5SC&#39;&lt;/span&gt;&lt;span style=&quot;color: #d4d4d4;&quot;&gt;, &lt;/span&gt;&lt;span style=&quot;color: #b5cea8;&quot;&gt;1&lt;/span&gt;&lt;span style=&quot;color: #d4d4d4;&quot;&gt;),&lt;/span&gt;&lt;/div&gt;&lt;div&gt;&lt;span style=&quot;color: #cccccc;&quot;&gt;&amp;nbsp; &amp;nbsp; &lt;/span&gt;&lt;span style=&quot;color: #d4d4d4;&quot;&gt;(&lt;/span&gt;&lt;span style=&quot;color: #ce9178;&quot;&gt;&#39;barbara&#39;&lt;/span&gt;&lt;span style=&quot;color: #d4d4d4;&quot;&gt;, &lt;/span&gt;&lt;span style=&quot;color: #ce9178;&quot;&gt;&#39;{bcrypt}$2a$10$KQsIaTz9PeTB9kb3S05dhec6qhsCFjjIU/0kecWapur5V3B98vNDy&#39;&lt;/span&gt;&lt;span style=&quot;color: #d4d4d4;&quot;&gt;, &lt;/span&gt;&lt;span style=&quot;color: #b5cea8;&quot;&gt;1&lt;/span&gt;&lt;span style=&quot;color: #d4d4d4;&quot;&gt;),&lt;/span&gt;&lt;/div&gt;&lt;div&gt;&lt;span style=&quot;color: #cccccc;&quot;&gt;&amp;nbsp; &amp;nbsp; &lt;/span&gt;&lt;span style=&quot;color: #d4d4d4;&quot;&gt;(&lt;/span&gt;&lt;span style=&quot;color: #ce9178;&quot;&gt;&#39;jefte&#39;&lt;/span&gt;&lt;span style=&quot;color: #d4d4d4;&quot;&gt;, &lt;/span&gt;&lt;span style=&quot;color: #ce9178;&quot;&gt;&#39;{bcrypt}$2a$10$pexiL67R6kwy/rHOSClyZO3ZIh/uPuDoFd3EQB0WS42l1q2BDOTVm&#39;&lt;/span&gt;&lt;span style=&quot;color: #d4d4d4;&quot;&gt;, &lt;/span&gt;&lt;span style=&quot;color: #b5cea8;&quot;&gt;1&lt;/span&gt;&lt;span style=&quot;color: #d4d4d4;&quot;&gt;);&lt;/span&gt;&lt;/div&gt;&lt;/div&gt;" style="text;whiteSpace=wrap;html=1;" vertex="1" parent="1">
          <mxGeometry x="620" y="620" width="710" height="80" as="geometry" />
        </mxCell>
        <mxCell id="ruq_KIyikG-wlPngTBl1-2" value="Spring&lt;div style=&quot;font-size: 16px;&quot;&gt;Security&lt;/div&gt;&lt;div style=&quot;font-size: 16px;&quot;&gt;Filters&lt;/div&gt;" style="rounded=0;whiteSpace=wrap;html=1;fillColor=#d5e8d4;strokeColor=#82b366;fontSize=16;" vertex="1" parent="1">
          <mxGeometry x="520" y="406.49" width="90" height="170" as="geometry" />
        </mxCell>
      </root>
    </mxGraphModel>
  </diagram>
</mxfile>
